<svg width="24" height="24" viewBox="0 0 24 24" fill="none" xmlns="http://www.w3.org/2000/svg">
<path fill-rule="evenodd" clip-rule="evenodd" d="M6 13.81C6 16.687 8.519 19.117 11.5 19.117C14.481 19.117 17 16.686 17 13.81C17 9.39 11.562 5.278 11.508 5.24C11.438 5.278 6 9.388 6 13.81ZM5 13.809C5 8.9 10.849 4.47 10.908 4.425L11.5 4L12.092 4.425C12.151 4.468 18 8.898 18 13.81C18 17.23 15.023 20.117 11.5 20.117C7.977 20.116 5 17.228 5 13.809ZM12 16C13.6039 15.9347 14.9965 14.6177 15 13.0125C15 11.4025 13.595 10.092 12 10.025V16ZM14 13.0125C14 13.6975 13.53 14.302 13 14.659V11.366C13.53 11.724 14 12.3285 14 13.0125Z" fill="#000624" style="fill:#000624;fill:color(display-p3 0.0000 0.0235 0.1412);fill-opacity:1;"/>
</svg>
