<svg width="24" height="24" viewBox="0 0 24 24" fill="none" xmlns="http://www.w3.org/2000/svg">
<path fill-rule="evenodd" clip-rule="evenodd" d="M6.99982 10.9774L6.99701 18.0003H9.99701V13.0003H14.997V18.0003H17.997V12.0003L18 10.9772L12.5 6.16471L6.99982 10.9774ZM19 18.0003C19 18.5526 18.5523 19.0003 18 19.0003H7.00001C6.44772 19.0003 6.00001 18.5526 6.00001 18.0003V17.657C5.99801 17.6232 5.99701 17.5889 5.99701 17.5543V11.8548L4.82926 12.8766C4.62144 13.0585 4.30556 13.0374 4.12372 12.8296C3.94188 12.6218 3.96294 12.3059 4.17075 12.124L12.5 4.83594L20.8293 12.124C21.0371 12.3059 21.0581 12.6218 20.8763 12.8296C20.6945 13.0374 20.3786 13.0585 20.1708 12.8766L19 11.8522V18.0003ZM10.997 18.0003H13.997V14.0003H10.997V18.0003Z" fill="#000624" style="fill:#000624;fill:color(display-p3 0.0000 0.0235 0.1412);fill-opacity:1;"/>
</svg>
